<svg width="137" height="121" fill="none" xmlns="http://www.w3.org/2000/svg"><path fill="#FAFAFA" stroke="#E5E9EA" stroke-width=".6" d="M.54.59h135.51v119.83H.54z"/><path fill="#E5E9EA" d="M.54 60.5h135.51v.47H.54zM.54 71.73h135.51v.47H.54zM.54 82.97h135.51v.47H.54zM.54 94.2h135.51v.47H.54zM.54 15.56h135.51v.47H.54zM.54 4.33h135.51v.47H.54zM.54 26.8h135.51v.47H.54zM.54 38.03h135.51v.47H.54zM.54 49.27h135.51v.47H.54zM.54 105.44h135.51v.47H.54zM.54 116.67h135.51v.47H.54z"/><path d="M4.11 60.5H22.4v26.96a3 3 0 0 1-3 3H7.11a3 3 0 0 1-3-3V60.5Z" fill="#242D52"/><path d="M4.11 60.5H22.4v19.47a3 3 0 0 1-3 3H7.11a3 3 0 0 1-3-3V60.5ZM31.93 60.34h18.28v-20.4a3 3 0 0 0-3-3H34.93a3 3 0 0 0-3 3v20.4Z" fill="#F3603C"/><path d="M31.93 60.34h18.28v30.71a3 3 0 0 1-3 3H34.93a3 3 0 0 1-3-3v-30.7ZM86.38 60.5h18.28V18.36a3 3 0 0 0-3-3H89.38a3 3 0 0 0-3 3V60.5Z" fill="#242D52"/><path d="M86.38 60.5h18.28V29.65a3 3 0 0 0-3-3H89.38a3 3 0 0 0-3 3V60.5Z" fill="#F3603C"/><path d="M114.2 60.5h18.27v34.55a3 3 0 0 1-3 3H117.2a3 3 0 0 1-3-3V60.5Z" fill="#242D52"/><path d="M114.2 60.5h18.27v27.04a3 3 0 0 1-3 3H117.2a3 3 0 0 1-3-3V60.5ZM58.96 60.5h18.28v53.32a3 3 0 0 1-3 3H61.96a3 3 0 0 1-3-3V60.5Z" fill="#F3603C"/><path d="M58.96 60.5h18.28v19.53a3 3 0 0 1-3 3H61.96a3 3 0 0 1-3-3V60.5Z" fill="#242D52"/></svg>