<svg width="110" height="18" fill="none" xmlns="http://www.w3.org/2000/svg"><path fill-rule="evenodd" clip-rule="evenodd" d="M89.2 17.8c.9 0 1.71-.1 2.42-.31s1.31-.5 1.8-.88c.48-.38.88-.84 1.2-1.39a6.1 6.1 0 0 0 .69-1.78c.14-.65.2-1.35.2-2.12V.2h-2.83v1.3h-.05A5.73 5.73 0 0 0 88.79 0a5.55 5.55 0 0 0-5.15 3.05c-.5.95-.76 2.02-.76 3.22 0 1.2.26 2.28.79 3.21a5.42 5.42 0 0 0 2.16 2.15c.92.5 1.95.75 3.1.75 1.54 0 2.8-.5 3.76-1.51h.05v1.31c0 .88-.32 1.61-.97 2.19-.64.58-1.55.87-2.73.87-.8 0-1.5-.1-2.11-.3-.6-.2-1.3-.5-2.1-.93l-.67 2.5c.7.42 1.47.74 2.34.96.87.22 1.77.34 2.7.34ZM30.13 6.42v6.2h-2.84V6.14c0-2.36-.82-3.55-2.46-3.55-.87 0-1.59.34-2.14 1.03a4.3 4.3 0 0 0-.84 2.8v6.17H19V.2h2.84v1.72h.04c.5-.61 1.09-1.08 1.76-1.4a4.76 4.76 0 0 1 2.1-.5c1.73 0 2.97.69 3.7 2.06h.05A5.13 5.13 0 0 1 31.41.54c.76-.35 1.6-.53 2.52-.53 1.4 0 2.47.45 3.22 1.35.76.9 1.13 2.25 1.13 4.06v7.19h-2.84V6.14c0-2.36-.8-3.55-2.43-3.55-.82 0-1.51.34-2.06 1.03a4.34 4.34 0 0 0-.83 2.8Zm19.79 4.52a4.67 4.67 0 0 1-3.94 1.86c-.86 0-1.65-.15-2.4-.45a5.52 5.52 0 0 1-3.15-3.28c-.3-.8-.46-1.66-.46-2.6 0-.93.16-1.79.46-2.59A5.73 5.73 0 0 1 45.94.01c1.61 0 2.89.56 3.83 1.68h.05V.19h2.84v12.4h-2.71v-1.66h-.04Zm-3.5-.72c-1.05 0-1.9-.35-2.56-1.05-.67-.7-1-1.6-1-2.7 0-1.16.34-2.1 1.03-2.8a3.4 3.4 0 0 1 2.54-1.07c1.01 0 1.85.37 2.52 1.11.66.74 1 1.66 1 2.76 0 1.1-.35 2-1.03 2.7a3.36 3.36 0 0 1-2.5 1.05ZM66.77 5.3v7.3h-2.84V6.04c0-.64-.06-1.2-.17-1.64-.12-.44-.3-.8-.54-1.06a2.1 2.1 0 0 0-.83-.56c-.32-.12-.7-.18-1.15-.18-.98 0-1.76.33-2.34 1a4.07 4.07 0 0 0-.87 2.78v6.22h-2.84V.2h2.84v1.7h.03A5.22 5.22 0 0 1 59.92.5a5.54 5.54 0 0 1 2.3-.48c1.42 0 2.53.43 3.34 1.3.8.86 1.2 2.2 1.2 3.99Zm7.67 7.5c1.69 0 3-.63 3.94-1.87h.04v1.66h2.72V.2H78.3v1.5h-.05A4.75 4.75 0 0 0 74.42 0a5.83 5.83 0 0 0-5.52 3.86c-.3.8-.46 1.66-.46 2.58 0 .95.15 1.81.46 2.6a5.52 5.52 0 0 0 3.16 3.28c.73.31 1.53.46 2.38.46Zm-2.12-3.64c.66.7 1.52 1.05 2.57 1.05.98 0 1.81-.35 2.5-1.05a3.7 3.7 0 0 0 1.02-2.7c0-1.1-.33-2.02-1-2.76a3.23 3.23 0 0 0-2.51-1.1 3.4 3.4 0 0 0-2.55 1.05 3.88 3.88 0 0 0-1.02 2.81c0 1.1.33 2 .99 2.7Zm14.45-.37c.66.65 1.5.98 2.53.98 1.04 0 1.88-.35 2.53-1.03.65-.68.97-1.55.97-2.6a3.4 3.4 0 0 0-1-2.54 3.42 3.42 0 0 0-2.5-.98c-1.05 0-1.9.33-2.55 1a3.5 3.5 0 0 0-.98 2.56c0 1.1.33 1.96 1 2.61Zm16.87 4a7 7 0 0 0 3.05-.63c.88-.42 1.6-1 2.17-1.71l-1.99-1.7a3.75 3.75 0 0 1-3.09 1.46 3.45 3.45 0 0 1-3.53-2.83h9.03c.05-.3.07-.67.07-1.13 0-1.2-.24-2.27-.73-3.21a5.4 5.4 0 0 0-2.1-2.22 6.16 6.16 0 0 0-3.18-.8c-.85 0-1.65.15-2.4.46a5.7 5.7 0 0 0-3.18 3.32c-.3.8-.46 1.66-.46 2.59 0 1.27.28 2.39.83 3.37A5.69 5.69 0 0 0 100.4 12c.96.52 2.04.78 3.23.78Zm-3.34-7.7h6.2a3.35 3.35 0 0 0-1.05-1.83 2.9 2.9 0 0 0-1.96-.67c-.79 0-1.47.22-2.04.65a3.2 3.2 0 0 0-1.15 1.85Z" fill="#242D52"/><path fill-rule="evenodd" clip-rule="evenodd" d="M4.18 2.18c0 1.21-.94 2.19-2.1 2.19A2.14 2.14 0 0 1 0 2.18C0 .98.94 0 2.09 0s2.09.98 2.09 2.18Zm0 7.87c0 1.2-.94 2.19-2.1 2.19A2.14 2.14 0 0 1 0 10.05c0-1.2.94-2.18 2.09-2.18s2.09.97 2.09 2.18ZM9.6 4.37c1.15 0 2.09-.98 2.09-2.19C11.7.98 10.76 0 9.61 0S7.52.98 7.52 2.18c0 1.21.94 2.19 2.1 2.19Z" fill="#F3603C"/><ellipse opacity=".5" cx="9.61" cy="10.14" rx="2.09" ry="2.18" fill="#F3603C"/></svg>