<svg width="147" height="24" fill="none" xmlns="http://www.w3.org/2000/svg"><path fill-rule="evenodd" clip-rule="evenodd" d="M118.7 23.74c1.2 0 2.28-.14 3.22-.42a6.39 6.39 0 0 0 3.99-3.02c.43-.73.73-1.52.92-2.38.19-.86.28-1.8.28-2.83V.26h-3.78V2h-.07a7.06 7.06 0 0 0-2.35-1.49 7.63 7.63 0 0 0-2.77-.51c-1.5 0-2.86.36-4.06 1.08a7.39 7.39 0 0 0-2.8 2.98c-.67 1.28-1 2.7-1 4.3a8.6 8.6 0 0 0 1.05 4.28 7.22 7.22 0 0 0 2.88 2.87c1.22.67 2.6 1 4.13 1 2.05 0 3.72-.67 5-2.02h.07v1.76c0 1.17-.43 2.14-1.29 2.9-.86.78-2.07 1.17-3.63 1.17-1.07 0-2-.14-2.82-.4a18.1 18.1 0 0 1-2.8-1.24l-.89 3.34c.93.55 1.97.98 3.12 1.27 1.16.3 2.36.45 3.6.45ZM40.01 8.55v8.26h-3.78V8.19c0-3.16-1.1-4.73-3.28-4.73-1.16 0-2.11.45-2.85 1.36a5.73 5.73 0 0 0-1.12 3.73v8.24H25.2V.26h3.78v2.29h.05A6.98 6.98 0 0 1 31.38.67c.9-.44 1.84-.65 2.8-.65 2.3 0 3.95.91 4.93 2.74h.06c.7-.9 1.55-1.57 2.56-2.04a7.89 7.89 0 0 1 3.35-.7c1.87 0 3.3.6 4.3 1.8 1 1.19 1.5 3 1.5 5.41v9.58H47.1V8.19c0-3.16-1.08-4.73-3.24-4.73a3.4 3.4 0 0 0-2.75 1.36 5.79 5.79 0 0 0-1.1 3.73Zm26.36 6.03a6.22 6.22 0 0 1-5.25 2.48c-1.14 0-2.2-.2-3.18-.6a7.35 7.35 0 0 1-4.2-4.38 9.6 9.6 0 0 1-.62-3.48c0-1.22.2-2.37.61-3.44A7.63 7.63 0 0 1 61.08.01c2.15 0 3.85.75 5.1 2.24h.07V.26h3.78V16.8h-3.61v-2.21h-.05Zm-4.66-.96a4.5 4.5 0 0 1-3.42-1.4 5.03 5.03 0 0 1-1.32-3.6c0-1.56.45-2.8 1.36-3.75a4.52 4.52 0 0 1 3.4-1.41c1.34 0 2.45.5 3.34 1.48a5.3 5.3 0 0 1 1.33 3.68c0 1.47-.45 2.67-1.36 3.6-.91.93-2.02 1.4-3.33 1.4Zm27.11-6.56v9.75h-3.78V8.04c0-.86-.08-1.59-.23-2.18-.16-.6-.4-1.07-.71-1.42a2.8 2.8 0 0 0-1.12-.75 4.48 4.48 0 0 0-1.52-.23c-1.3 0-2.34.44-3.12 1.32a5.43 5.43 0 0 0-1.16 3.7v8.31H73.4V.26h3.78v2.27h.05A6.96 6.96 0 0 1 79.7.66a7.37 7.37 0 0 1 3.05-.64c1.9 0 3.38.57 4.45 1.73 1.08 1.15 1.61 2.92 1.61 5.31Zm10.22 10c2.25 0 4-.83 5.25-2.48h.05v2.21h3.62V.26h-3.78v1.99h-.07a6.33 6.33 0 0 0-5.1-2.23 7.76 7.76 0 0 0-7.35 5.14 9.59 9.59 0 0 0-.61 3.44c0 1.26.2 2.42.6 3.48a7.35 7.35 0 0 0 4.2 4.38c1 .4 2.06.6 3.19.6Zm-2.82-4.84a4.5 4.5 0 0 0 3.41 1.4c1.31 0 2.42-.47 3.33-1.4a4.94 4.94 0 0 0 1.37-3.6A5.3 5.3 0 0 0 103 4.94a4.3 4.3 0 0 0-3.35-1.48c-1.35 0-2.48.47-3.4 1.41-.9.95-1.36 2.2-1.36 3.75 0 1.47.44 2.67 1.33 3.6Zm19.24-.5c.89.87 2.01 1.3 3.38 1.3s2.5-.45 3.36-1.36a4.83 4.83 0 0 0 1.3-3.47c0-1.39-.45-2.52-1.34-3.4-.88-.86-2-1.3-3.32-1.3-1.4 0-2.54.44-3.4 1.32a4.67 4.67 0 0 0-1.31 3.43c0 1.45.44 2.62 1.33 3.48Zm22.46 5.34a9.3 9.3 0 0 0 4.07-.85 7.95 7.95 0 0 0 2.88-2.28l-2.64-2.27a5 5 0 0 1-4.11 1.96 4.78 4.78 0 0 1-3.08-1.01 4.6 4.6 0 0 1-1.63-2.77h12.03c.06-.4.1-.9.1-1.5a9.2 9.2 0 0 0-.98-4.29 7.2 7.2 0 0 0-2.8-2.96 8.2 8.2 0 0 0-4.23-1.07c-1.14 0-2.2.2-3.2.62a7.59 7.59 0 0 0-4.24 4.42 9.56 9.56 0 0 0-.6 3.46c0 1.69.36 3.19 1.1 4.5a7.58 7.58 0 0 0 3.02 3 8.87 8.87 0 0 0 4.31 1.04Zm-4.44-10.28h8.26a4.47 4.47 0 0 0-1.4-2.43c-.69-.6-1.56-.9-2.62-.9-1.04 0-1.94.3-2.7.88a4.27 4.27 0 0 0-1.54 2.45Z" fill="#fff"/><path fill-rule="evenodd" clip-rule="evenodd" d="M5.57 2.86A2.82 2.82 0 0 1 2.8 5.7 2.82 2.82 0 0 1 0 2.86 2.82 2.82 0 0 1 2.79 0a2.82 2.82 0 0 1 2.78 2.86Zm0 10.28A2.82 2.82 0 0 1 2.8 16 2.82 2.82 0 0 1 0 13.14a2.82 2.82 0 0 1 2.79-2.85 2.82 2.82 0 0 1 2.78 2.85Zm7.24-7.43a2.82 2.82 0 0 0 2.79-2.85A2.82 2.82 0 0 0 12.81 0a2.82 2.82 0 0 0-2.78 2.86A2.82 2.82 0 0 0 12.8 5.7Z" fill="#F3603C"/><ellipse opacity=".5" cx="12.81" cy="13.26" rx="2.79" ry="2.86" fill="#F3603C"/></svg>